<svg width="132" height="60" viewBox="0 0 132 60" fill="none" xmlns="http://www.w3.org/2000/svg">
<g clip-path="url(#clip0_9_1171)">
<path d="M23.5129 12.5564L27.6602 9.99316L34.9466 21.7724L42.233 9.99316L46.3802 12.5564L34.9466 31.0459L23.5129 12.5564Z" fill="#FFAC2D"/>
<path d="M58.3898 12.4122V9.58984H63.1994V31.1898H58.3898V28.3962C57.065 29.145 55.625 29.5194 54.0698 29.5194C51.5546 29.5194 49.4042 28.6266 47.6186 26.841C45.8522 25.0554 44.969 22.905 44.969 20.3898C44.969 17.8746 45.8522 15.7338 47.6186 13.9674C49.4042 12.1818 51.5546 11.289 54.0698 11.289C55.625 11.289 57.065 11.6634 58.3898 12.4122ZM54.0698 16.0698C52.9178 16.0698 51.9098 16.5018 51.0458 17.3658C50.1818 18.2298 49.7498 19.2378 49.7498 20.3898C49.7498 21.561 50.1818 22.5786 51.0458 23.4426C51.9098 24.2874 52.9178 24.7098 54.0698 24.7098C55.241 24.7098 56.249 24.2874 57.0938 23.4426C57.9578 22.5786 58.3898 21.561 58.3898 20.3898C58.3898 19.2378 57.9578 18.2298 57.0938 17.3658C56.249 16.5018 55.241 16.0698 54.0698 16.0698Z" fill="#FFAC2D"/>
<path d="M65.0372 12.0096H69.8468V28.7999H65.0372V12.0096ZM67.4564 4.80957C68.2436 4.80957 68.9156 5.08797 69.4724 5.64477C70.0484 6.20157 70.3364 6.88317 70.3364 7.68957C70.3364 8.47677 70.0484 9.15837 69.4724 9.73437C68.9156 10.2912 68.2436 10.5696 67.4564 10.5696C66.65 10.5696 65.9684 10.2912 65.4116 9.73437C64.8548 9.15837 64.5764 8.47677 64.5764 7.68957C64.5764 6.88317 64.8548 6.20157 65.4116 5.64477C65.9684 5.08797 66.65 4.80957 67.4564 4.80957Z" fill="#FFAC2D"/>
<path d="M85.8608 14.8075H89.8688V24.0715V33.3355L79.8608 21.2635V28.7995H75.8528V10.2715L85.8608 22.3435V14.8075Z" fill="#FF611E"/>
<path d="M102.122 15.144V12.792H106.13V30.792H102.122V28.464C101.018 29.088 99.8177 29.4 98.5217 29.4C96.4256 29.4 94.6337 28.656 93.1457 27.168C91.6736 25.68 90.9377 23.888 90.9377 21.792C90.9377 19.696 91.6736 17.912 93.1457 16.44C94.6337 14.952 96.4256 14.208 98.5217 14.208C99.8177 14.208 101.018 14.52 102.122 15.144ZM98.5217 18.192C97.5617 18.192 96.7217 18.552 96.0017 19.272C95.2817 19.992 94.9217 20.832 94.9217 21.792C94.9217 22.768 95.2817 23.616 96.0017 24.336C96.7217 25.0399 97.5617 25.392 98.5217 25.392C99.4976 25.392 100.338 25.0399 101.042 24.336C101.762 23.616 102.122 22.768 102.122 21.792C102.122 20.832 101.762 19.992 101.042 19.272C100.338 18.552 99.4976 18.192 98.5217 18.192Z" fill="#FF611E"/>
<path d="M3.97021 54.4076V34.3916H7.97821V36.7436C9.08221 36.1196 10.2822 35.8076 11.5782 35.8076C13.6742 35.8076 15.4662 36.5516 16.9542 38.0396C18.4422 39.5115 19.1862 41.2957 19.1862 43.3916C19.1862 45.4875 18.4422 47.2796 16.9542 48.7676C15.4662 50.2556 13.6742 50.9996 11.5782 50.9996C10.2822 50.9996 9.08221 50.6876 7.97821 50.0636V54.4076H3.97021ZM15.1782 43.3916C15.1782 42.4316 14.8182 41.5916 14.0982 40.8716C13.3782 40.1516 12.5382 39.7916 11.5782 39.7916C10.6022 39.7916 9.75421 40.1516 9.03421 40.8716C8.3302 41.5916 7.97821 42.4316 7.97821 43.3916C7.97821 44.3677 8.3302 45.2156 9.03421 45.9356C9.75421 46.6395 10.6022 46.9916 11.5782 46.9916C12.5382 46.9916 13.3782 46.6395 14.0982 45.9356C14.8182 45.2156 15.1782 44.3677 15.1782 43.3916Z" fill="#FFAC2D"/>
<path d="M34.9737 46.0076H23.8377C24.0138 46.8555 24.4298 47.5676 25.0857 48.1436C25.7577 48.7196 26.5178 49.0076 27.3657 49.0076H27.9657V52.9916H27.3657C25.2698 52.9916 23.4777 52.2476 21.9897 50.7596C20.5177 49.2877 19.7817 47.5035 19.7817 45.4076V43.3916C19.7817 41.2957 20.5177 39.5115 21.9897 38.0396C23.4777 36.5516 25.2698 35.8076 27.3657 35.8076C29.4618 35.8076 31.2537 36.5516 32.7417 38.0396C34.2297 39.5115 34.9737 41.2957 34.9737 43.3916V46.0076ZM24.0537 41.9996H30.6537C30.3657 41.3437 29.9258 40.8157 29.3337 40.4156C28.7418 39.9997 28.0857 39.7916 27.3657 39.7916C26.6457 39.7916 25.9898 39.9997 25.3977 40.4156C24.8058 40.8157 24.3578 41.3437 24.0537 41.9996Z" fill="#FFAC2D"/>
<path d="M47.7911 37.9436L45.0071 40.8716C44.559 40.4396 44.175 40.1595 43.8551 40.0316C43.487 39.8715 42.999 39.7916 42.3911 39.7916C41.4311 39.7916 40.5911 40.1516 39.8711 40.8716C39.1511 41.5916 38.7911 42.4316 38.7911 43.3916C38.7911 44.3677 39.1511 45.2156 39.8711 45.9356C40.5911 46.6395 41.4311 46.9916 42.3911 46.9916C42.999 46.9916 43.487 46.9117 43.8551 46.7516C44.175 46.6237 44.559 46.3515 45.0071 45.9356L47.7911 48.8636C46.319 50.2875 44.519 50.9996 42.3911 50.9996C40.295 50.9996 38.5031 50.2556 37.0151 48.7676C35.543 47.2796 34.8071 45.4875 34.8071 43.3916C34.8071 41.2957 35.543 39.5115 37.0151 38.0396C38.5031 36.5516 40.295 35.8076 42.3911 35.8076C44.519 35.8076 46.319 36.5197 47.7911 37.9436Z" fill="#FFAC2D"/>
<path d="M52.2106 31.3916V40.3916H58.2106V36.4076H62.2186V50.3996H58.2106V44.3996H52.2106V50.3996H48.2026V31.3916H52.2106Z" fill="#FFAC2D"/>
<path d="M63.7436 36.4082H67.7516V50.4002H63.7436V36.4082ZM65.7596 30.4082C66.4155 30.4082 66.9755 30.6403 67.4396 31.1042C67.9196 31.5681 68.1596 32.1362 68.1596 32.8082C68.1596 33.4641 67.9196 34.0322 67.4396 34.5122C66.9755 34.9761 66.4155 35.2082 65.7596 35.2082C65.0876 35.2082 64.5195 34.9761 64.0556 34.5122C63.5915 34.0322 63.3596 33.4641 63.3596 32.8082C63.3596 32.1362 63.5915 31.5681 64.0556 31.1042C64.5195 30.6403 65.0876 30.4082 65.7596 30.4082Z" fill="#FFAC2D"/>
<path d="M79.2844 36.4081H83.2924V54.9361L73.2844 42.8641V50.4001H69.2764V31.8721L79.2844 43.9441V36.4081Z" fill="#FFAC2D"/>
<path d="M97.3453 37.9436L94.5613 40.8716C94.1135 40.4396 93.7295 40.1595 93.4093 40.0316C93.0414 39.8715 92.5535 39.7916 91.9453 39.7916C90.9853 39.7916 90.1453 40.1516 89.4253 40.8716C88.7053 41.5916 88.3453 42.4316 88.3453 43.3916C88.3453 44.3677 88.7053 45.2156 89.4253 45.9356C90.1453 46.6395 90.9853 46.9916 91.9453 46.9916C92.5535 46.9916 93.0414 46.9117 93.4093 46.7516C93.7295 46.6237 94.1135 46.3515 94.5613 45.9356L97.3453 48.8636C95.8734 50.2875 94.0734 50.9996 91.9453 50.9996C89.8494 50.9996 88.0573 50.2556 86.5693 48.7676C85.0974 47.2796 84.3613 45.4875 84.3613 43.3916C84.3613 41.2957 85.0974 39.5115 86.5693 38.0396C88.0573 36.5516 89.8494 35.8076 91.9453 35.8076C94.0734 35.8076 95.8734 36.5197 97.3453 37.9436Z" fill="#FFAC2D"/>
<path d="M101.765 31.3916V40.3916H107.765V36.4076H111.773V50.3996H107.765V44.3996H101.765V50.3996H97.7568V31.3916H101.765Z" fill="#FFAC2D"/>
<path d="M124.026 36.7436V34.3916H128.034V52.3916H124.026V50.0636C122.922 50.6876 121.722 50.9996 120.426 50.9996C118.33 50.9996 116.538 50.2556 115.05 48.7676C113.578 47.2796 112.842 45.4875 112.842 43.3916C112.842 41.2957 113.578 39.5115 115.05 38.0396C116.538 36.5516 118.33 35.8076 120.426 35.8076C121.722 35.8076 122.922 36.1196 124.026 36.7436ZM120.426 39.7916C119.466 39.7916 118.626 40.1516 117.906 40.8716C117.186 41.5916 116.826 42.4316 116.826 43.3916C116.826 44.3677 117.186 45.2156 117.906 45.9356C118.626 46.6395 119.466 46.9916 120.426 46.9916C121.402 46.9916 122.242 46.6395 122.946 45.9356C123.666 45.2156 124.026 44.3677 124.026 43.3916C124.026 42.4316 123.666 41.5916 122.946 40.8716C122.242 40.1516 121.402 39.7916 120.426 39.7916Z" fill="#FFAC2D"/>
<mask id="mask0_9_1171" style="mask-type:luminance" maskUnits="userSpaceOnUse" x="-1" y="0" width="135" height="61">
<path d="M133.57 0.00976562H-0.82959V60.0098H133.57V0.00976562Z" fill="white"/>
<path d="M23.5129 12.5573L27.6602 9.99414L34.9466 21.7733L42.233 9.99414L46.3802 12.5573L34.9466 31.0469L23.5129 12.5573Z" fill="black"/>
<path d="M58.39 12.4132V9.59082H63.1996V31.1908H58.39V28.3972C57.0652 29.146 55.6252 29.5204 54.07 29.5204C51.5548 29.5204 49.4044 28.6276 47.6188 26.842C45.8524 25.0564 44.9692 22.906 44.9692 20.3908C44.9692 17.8756 45.8524 15.7348 47.6188 13.9684C49.4044 12.1828 51.5548 11.29 54.07 11.29C55.6252 11.29 57.0652 11.6644 58.39 12.4132ZM54.07 16.0708C52.918 16.0708 51.91 16.5028 51.046 17.3668C50.182 18.2308 49.75 19.2388 49.75 20.3908C49.75 21.562 50.182 22.5796 51.046 23.4436C51.91 24.2884 52.918 24.7108 54.07 24.7108C55.2412 24.7108 56.2492 24.2884 57.094 23.4436C57.958 22.5796 58.39 21.562 58.39 20.3908C58.39 19.2388 57.958 18.2308 57.094 17.3668C56.2492 16.5028 55.2412 16.0708 54.07 16.0708Z" fill="black"/>
<path d="M65.0372 12.0096H69.8468V28.7999H65.0372V12.0096ZM67.4564 4.80957C68.2436 4.80957 68.9156 5.08797 69.4724 5.64477C70.0484 6.20157 70.3364 6.88317 70.3364 7.68957C70.3364 8.47677 70.0484 9.15837 69.4724 9.73437C68.9156 10.2912 68.2436 10.5696 67.4564 10.5696C66.65 10.5696 65.9684 10.2912 65.4116 9.73437C64.8548 9.15837 64.5764 8.47677 64.5764 7.68957C64.5764 6.88317 64.8548 6.20157 65.4116 5.64477C65.9684 5.08797 66.65 4.80957 67.4564 4.80957Z" fill="black"/>
<path d="M85.8608 14.8085H89.8688V24.0724V33.3364L79.8608 21.2645V28.8004H75.8528V10.2725L85.8608 22.3445V14.8085Z" fill="black"/>
<path d="M102.122 15.144V12.792H106.13V30.792H102.122V28.464C101.018 29.088 99.8177 29.4 98.5217 29.4C96.4256 29.4 94.6337 28.656 93.1457 27.168C91.6736 25.68 90.9377 23.888 90.9377 21.792C90.9377 19.696 91.6736 17.912 93.1457 16.44C94.6337 14.952 96.4256 14.208 98.5217 14.208C99.8177 14.208 101.018 14.52 102.122 15.144ZM98.5217 18.192C97.5617 18.192 96.7217 18.552 96.0017 19.272C95.2817 19.992 94.9217 20.832 94.9217 21.792C94.9217 22.768 95.2817 23.616 96.0017 24.336C96.7217 25.0399 97.5617 25.392 98.5217 25.392C99.4976 25.392 100.338 25.0399 101.042 24.336C101.762 23.616 102.122 22.768 102.122 21.792C102.122 20.832 101.762 19.992 101.042 19.272C100.338 18.552 99.4976 18.192 98.5217 18.192Z" fill="black"/>
<path d="M3.97046 54.4086V34.3926H7.97846V36.7446C9.08246 36.1206 10.2825 35.8086 11.5785 35.8086C13.6744 35.8086 15.4665 36.5526 16.9545 38.0406C18.4425 39.5125 19.1865 41.2967 19.1865 43.3926C19.1865 45.4885 18.4425 47.2806 16.9545 48.7686C15.4665 50.2566 13.6744 51.0006 11.5785 51.0006C10.2825 51.0006 9.08246 50.6886 7.97846 50.0646V54.4086H3.97046ZM15.1785 43.3926C15.1785 42.4326 14.8185 41.5926 14.0985 40.8726C13.3785 40.1526 12.5385 39.7926 11.5785 39.7926C10.6024 39.7926 9.75446 40.1526 9.03446 40.8726C8.33044 41.5926 7.97846 42.4326 7.97846 43.3926C7.97846 44.3687 8.33044 45.2166 9.03446 45.9366C9.75446 46.6405 10.6024 46.9926 11.5785 46.9926C12.5385 46.9926 13.3785 46.6405 14.0985 45.9366C14.8185 45.2166 15.1785 44.3687 15.1785 43.3926Z" fill="black"/>
<path d="M34.9739 46.0086H23.838C24.0141 46.8565 24.43 47.5686 25.0859 48.1446C25.7579 48.7206 26.518 49.0086 27.3659 49.0086H27.9659V52.9926H27.3659C25.27 52.9926 23.478 52.2486 21.99 50.7606C20.518 49.2887 19.782 47.5045 19.782 45.4086V43.3926C19.782 41.2967 20.518 39.5125 21.99 38.0406C23.478 36.5526 25.27 35.8086 27.3659 35.8086C29.4621 35.8086 31.2539 36.5526 32.7419 38.0406C34.2299 39.5125 34.9739 41.2967 34.9739 43.3926V46.0086ZM24.0539 42.0006H30.6539C30.3659 41.3447 29.926 40.8167 29.3339 40.4166C28.7421 40.0007 28.0859 39.7926 27.3659 39.7926C26.6459 39.7926 25.99 40.0007 25.3979 40.4166C24.8061 40.8167 24.358 41.3447 24.0539 42.0006Z" fill="black"/>
<path d="M47.7914 37.9446L45.0074 40.8726C44.5593 40.4406 44.1753 40.1605 43.8554 40.0326C43.4872 39.8725 42.9993 39.7926 42.3914 39.7926C41.4314 39.7926 40.5914 40.1526 39.8714 40.8726C39.1514 41.5926 38.7914 42.4326 38.7914 43.3926C38.7914 44.3687 39.1514 45.2166 39.8714 45.9366C40.5914 46.6405 41.4314 46.9926 42.3914 46.9926C42.9993 46.9926 43.4872 46.9127 43.8554 46.7526C44.1753 46.6247 44.5593 46.3525 45.0074 45.9366L47.7914 48.8646C46.3192 50.2885 44.5192 51.0006 42.3914 51.0006C40.2952 51.0006 38.5034 50.2566 37.0154 48.7686C35.5432 47.2806 34.8074 45.4885 34.8074 43.3926C34.8074 41.2967 35.5432 39.5125 37.0154 38.0406C38.5034 36.5526 40.2952 35.8086 42.3914 35.8086C44.5192 35.8086 46.3192 36.5207 47.7914 37.9446Z" fill="black"/>
<path d="M52.2106 31.3926V40.3926H58.2106V36.4086H62.2186V50.4006H58.2106V44.4006H52.2106V50.4006H48.2026V31.3926H52.2106Z" fill="black"/>
<path d="M63.7436 36.4082H67.7516V50.4002H63.7436V36.4082ZM65.7596 30.4082C66.4155 30.4082 66.9755 30.6403 67.4396 31.1042C67.9196 31.5681 68.1596 32.1362 68.1596 32.8082C68.1596 33.4641 67.9196 34.0322 67.4396 34.5122C66.9755 34.9761 66.4155 35.2082 65.7596 35.2082C65.0876 35.2082 64.5195 34.9761 64.0556 34.5122C63.5915 34.0322 63.3596 33.4641 63.3596 32.8082C63.3596 32.1362 63.5915 31.5681 64.0556 31.1042C64.5195 30.6403 65.0876 30.4082 65.7596 30.4082Z" fill="black"/>
<path d="M79.2846 36.4081H83.2926V54.9361L73.2846 42.8641V50.4001H69.2766V31.8721L79.2846 43.9441V36.4081Z" fill="black"/>
<path d="M97.3456 37.9446L94.5616 40.8726C94.1137 40.4406 93.7297 40.1605 93.4096 40.0326C93.0416 39.8725 92.5537 39.7926 91.9456 39.7926C90.9856 39.7926 90.1456 40.1526 89.4256 40.8726C88.7056 41.5926 88.3456 42.4326 88.3456 43.3926C88.3456 44.3687 88.7056 45.2166 89.4256 45.9366C90.1456 46.6405 90.9856 46.9926 91.9456 46.9926C92.5537 46.9926 93.0416 46.9127 93.4096 46.7526C93.7297 46.6247 94.1137 46.3525 94.5616 45.9366L97.3456 48.8646C95.8736 50.2885 94.0736 51.0006 91.9456 51.0006C89.8496 51.0006 88.0576 50.2566 86.5696 48.7686C85.0976 47.2806 84.3616 45.4885 84.3616 43.3926C84.3616 41.2967 85.0976 39.5125 86.5696 38.0406C88.0576 36.5526 89.8496 35.8086 91.9456 35.8086C94.0736 35.8086 95.8736 36.5207 97.3456 37.9446Z" fill="black"/>
<path d="M101.765 31.3926V40.3926H107.765V36.4086H111.773V50.4006H107.765V44.4006H101.765V50.4006H97.7568V31.3926H101.765Z" fill="black"/>
<path d="M124.026 36.7446V34.3926H128.034V52.3926H124.026V50.0646C122.922 50.6886 121.722 51.0006 120.426 51.0006C118.33 51.0006 116.538 50.2566 115.05 48.7686C113.578 47.2806 112.842 45.4885 112.842 43.3926C112.842 41.2967 113.578 39.5125 115.05 38.0406C116.538 36.5526 118.33 35.8086 120.426 35.8086C121.722 35.8086 122.922 36.1206 124.026 36.7446ZM120.426 39.7926C119.466 39.7926 118.626 40.1526 117.906 40.8726C117.186 41.5926 116.826 42.4326 116.826 43.3926C116.826 44.3687 117.186 45.2166 117.906 45.9366C118.626 46.6405 119.466 46.9926 120.426 46.9926C121.402 46.9926 122.242 46.6405 122.946 45.9366C123.666 45.2166 124.026 44.3687 124.026 43.3926C124.026 42.4326 123.666 41.5926 122.946 40.8726C122.242 40.1526 121.402 39.7926 120.426 39.7926Z" fill="black"/>
</mask>
<g mask="url(#mask0_9_1171)">
<path d="M55.7276 19.8142C55.7276 18.7538 54.8681 17.8942 53.8076 17.8942C52.7473 17.8942 51.8876 18.7538 51.8876 19.8142H55.7276ZM51.8876 21.2468C51.8876 22.3071 52.7473 23.1668 53.8076 23.1668C54.8681 23.1668 55.7276 22.3071 55.7276 21.2468H51.8876ZM45.3401 27.094C45.3401 26.0334 44.4807 25.174 43.4201 25.174C42.3598 25.174 41.5001 26.0334 41.5001 27.094H45.3401ZM41.5001 31.6304C41.5001 32.6908 42.3598 33.5504 43.4201 33.5504C44.4807 33.5504 45.3401 32.6908 45.3401 31.6304H41.5001ZM42.1174 26.8549C42.1174 25.7944 41.258 24.9349 40.1974 24.9349C39.1371 24.9349 38.2774 25.7944 38.2774 26.8549H42.1174ZM38.2774 31.5107C38.2774 32.571 39.1371 33.4307 40.1974 33.4307C41.258 33.4307 42.1174 32.571 42.1174 31.5107H38.2774ZM44.1473 26.2595C44.1473 25.1992 43.2877 24.3395 42.2273 24.3395C41.1668 24.3395 40.3073 25.1992 40.3073 26.2595H44.1473ZM40.3073 31.7509C40.3073 32.8115 41.1668 33.6709 42.2273 33.6709C43.2877 33.6709 44.1473 32.8115 44.1473 31.7509H40.3073ZM40.0877 28.172C40.0877 27.1117 39.2283 26.252 38.1677 26.252C37.1074 26.252 36.2477 27.1117 36.2477 28.172H40.0877ZM36.2477 32.589C36.2477 33.6496 37.1074 34.509 38.1677 34.509C39.2283 34.509 40.0877 33.6496 40.0877 32.589H36.2477ZM79.723 31.6314C79.723 30.5711 78.8633 29.7114 77.803 29.7114C76.7427 29.7114 75.883 30.5711 75.883 31.6314H79.723ZM75.883 33.6608C75.883 34.7212 76.7427 35.5808 77.803 35.5808C78.8633 35.5808 79.723 34.7212 79.723 33.6608H75.883ZM78.4105 31.6314C78.4105 30.5711 77.5508 29.7114 76.4905 29.7114C75.4301 29.7114 74.5704 30.5711 74.5704 31.6314H78.4105ZM74.5704 34.4965C74.5704 35.5568 75.4301 36.4165 76.4905 36.4165C77.5508 36.4165 78.4105 35.5568 78.4105 34.4965H74.5704ZM76.6174 29.7236C76.6174 28.6631 75.758 27.8036 74.6974 27.8036C73.6371 27.8036 72.7774 28.6631 72.7774 29.7236H76.6174ZM72.7774 32.708C72.7774 33.7684 73.6371 34.628 74.6974 34.628C75.758 34.628 76.6174 33.7684 76.6174 32.708H72.7774ZM75.0661 28.2892C75.0661 27.2288 74.2064 26.3692 73.1461 26.3692C72.0855 26.3692 71.2261 27.2288 71.2261 28.2892H75.0661ZM71.2261 31.1543C71.2261 32.2146 72.0855 33.0743 73.1461 33.0743C74.2064 33.0743 75.0661 32.2146 75.0661 31.1543H71.2261ZM74.1121 23.7517C74.1121 22.6913 73.2524 21.8317 72.1921 21.8317C71.1317 21.8317 70.2721 22.6913 70.2721 23.7517H74.1121ZM70.2721 30.5564C70.2721 31.6168 71.1317 32.4764 72.1921 32.4764C73.2524 32.4764 74.1121 31.6168 74.1121 30.5564H70.2721ZM84.6169 30.0798C84.6169 29.0195 83.7572 28.1598 82.6969 28.1598C81.6363 28.1598 80.7769 29.0195 80.7769 30.0798H84.6169ZM80.7769 33.7806C80.7769 34.8409 81.6363 35.7006 82.6969 35.7006C83.7572 35.7006 84.6169 34.8409 84.6169 33.7806H80.7769ZM86.1682 30.6752C86.1682 29.6147 85.3088 28.7552 84.2482 28.7552C83.1879 28.7552 82.3282 29.6147 82.3282 30.6752H86.1682ZM82.3282 32.824C82.3282 33.8843 83.1879 34.744 84.2482 34.744C85.3088 34.744 86.1682 33.8843 86.1682 32.824H82.3282ZM87.4832 31.8704C87.4832 30.8101 86.6235 29.9504 85.5632 29.9504C84.5028 29.9504 83.6432 30.8101 83.6432 31.8704H87.4832ZM83.6432 33.0642C83.6432 34.1245 84.5028 34.9842 85.5632 34.9842C86.6235 34.9842 87.4832 34.1245 87.4832 33.0642H83.6432ZM122.375 42.8111C122.375 41.7508 121.515 40.8911 120.455 40.8911C119.394 40.8911 118.535 41.7508 118.535 42.8111H122.375ZM118.535 43.9021C118.535 44.9624 119.394 45.8221 120.455 45.8221C121.515 45.8221 122.375 44.9624 122.375 43.9021H118.535ZM97.4196 22.4433C97.4196 23.5037 98.2793 24.3632 99.3396 24.3632C100.4 24.3632 101.26 23.5037 101.26 22.4433H97.4196ZM101.26 21.1923C101.26 20.1319 100.4 19.2723 99.3396 19.2723C98.2793 19.2723 97.4196 20.1319 97.4196 21.1923H101.26ZM13.5308 42.8814C13.5308 41.8211 12.6712 40.9614 11.6108 40.9614C10.5504 40.9614 9.69083 41.8211 9.69083 42.8814H13.5308ZM9.69083 43.4984C9.69083 44.5588 10.5504 45.4184 11.6108 45.4184C12.6712 45.4184 13.5308 44.5588 13.5308 43.4984H9.69083ZM51.8876 19.8142V21.2468H55.7276V19.8142H51.8876ZM41.5001 27.094V31.6304H45.3401V27.094H41.5001ZM38.2774 26.8549V31.5107H42.1174V26.8549H38.2774ZM40.3073 26.2595V31.7509H44.1473V26.2595H40.3073ZM36.2477 28.172V32.589H40.0877V28.172H36.2477ZM75.883 31.6314V33.6608H79.723V31.6314H75.883ZM74.5704 31.6314V34.4965H78.4105V31.6314H74.5704ZM72.7774 29.7236V32.708H76.6174V29.7236H72.7774ZM71.2261 28.2892V31.1543H75.0661V28.2892H71.2261ZM70.2721 23.7517V30.5564H74.1121V23.7517H70.2721ZM80.7769 30.0798V33.7806H84.6169V30.0798H80.7769ZM82.3282 30.6752V32.824H86.1682V30.6752H82.3282ZM83.6432 31.8704V33.0642H87.4832V31.8704H83.6432ZM118.535 42.8111V43.9021H122.375V42.8111H118.535ZM101.26 22.4433V21.1923H97.4196V22.4433H101.26ZM9.69083 42.8814V43.4984H13.5308V42.8814H9.69083ZM23.513 12.5569L21.4941 9.29046C20.6277 9.82598 20.0095 10.6838 19.7756 11.6752C19.5417 12.6665 19.7113 13.7102 20.247 14.5766L23.513 12.5569ZM27.6603 9.99374L30.926 7.97363C29.8105 6.17051 27.4448 5.61258 25.6414 6.72726L27.6603 9.99374ZM34.9467 21.7729L31.681 23.793C32.3809 24.9244 33.6164 25.6129 34.9467 25.6129C36.277 25.6129 37.5125 24.9244 38.2124 23.793L34.9467 21.7729ZM42.2331 9.99374L44.252 6.72726C42.4484 5.61258 40.0827 6.17051 38.9674 7.97363L42.2331 9.99374ZM46.3803 12.5569L49.6462 14.5766C50.1819 13.7102 50.3516 12.6665 50.1176 11.6752C49.8838 10.6838 49.2656 9.82598 48.3992 9.29046L46.3803 12.5569ZM34.9467 31.0465L31.6805 33.0661C32.3804 34.1977 33.6161 34.8865 34.9467 34.8865C36.277 34.8865 37.5128 34.1977 38.2126 33.0661L34.9467 31.0465ZM58.3899 12.4129L56.5004 15.7559C57.6891 16.4278 59.1454 16.4179 60.325 15.7296C61.5046 15.0414 62.2299 13.7786 62.2299 12.4129H58.3899ZM58.3899 9.59054V5.75054C56.269 5.75054 54.5499 7.46975 54.5499 9.59054H58.3899ZM63.1995 9.59054H67.0395C67.0395 7.46975 65.3201 5.75054 63.1995 5.75054V9.59054ZM63.1995 31.1905V35.0305C65.3201 35.0305 67.0395 33.3114 67.0395 31.1905H63.1995ZM58.3899 31.1905H54.5499C54.5499 33.3114 56.269 35.0305 58.3899 35.0305V31.1905ZM58.3899 28.3969H62.2299C62.2299 27.0313 61.5046 25.7684 60.325 25.0801C59.1454 24.392 57.6891 24.382 56.5004 25.054L58.3899 28.3969ZM47.6187 26.8417L44.8887 29.5424L44.9033 29.5571L47.6187 26.8417ZM51.0459 23.4433L48.3305 26.1587C48.3406 26.1688 48.3509 26.1788 48.3613 26.1889L51.0459 23.4433ZM57.0939 17.3665L54.3483 20.0512C54.3581 20.0614 54.3685 20.0716 54.3785 20.0818L57.0939 17.3665ZM65.0372 12.0097V8.16974C62.9165 8.16974 61.1972 9.88895 61.1972 12.0097H65.0372ZM69.8468 12.0097H73.6868C73.6868 9.88895 71.9677 8.16974 69.8468 8.16974V12.0097ZM69.8468 28.8001V32.6401C71.9677 32.6401 73.6868 30.921 73.6868 28.8001H69.8468ZM65.0372 28.8001H61.1972C61.1972 30.921 62.9165 32.6401 65.0372 32.6401V28.8001ZM69.4724 5.64494L66.757 8.36022C66.7724 8.37556 66.788 8.39078 66.8036 8.40585L69.4724 5.64494ZM65.4116 9.73454L62.6506 12.4034C62.6657 12.419 62.6809 12.4345 62.6962 12.4498L65.4116 9.73454ZM85.8608 14.8081V10.9681C83.7399 10.9681 82.0208 12.6874 82.0208 14.8081H85.8608ZM89.8688 14.8081H93.7088C93.7088 12.6874 91.9894 10.9681 89.8688 10.9681V14.8081ZM89.8688 33.3361L86.9125 35.787C87.9454 37.0328 89.6489 37.4975 91.1712 36.9484C92.6938 36.3995 93.7088 34.9547 93.7088 33.3361H89.8688ZM79.8608 21.2641L82.8168 18.8134C81.7839 17.5673 80.0806 17.1028 78.558 17.6518C77.0355 18.2009 76.0208 19.6456 76.0208 21.2641H79.8608ZM79.8608 28.8001V32.6401C81.9814 32.6401 83.7008 30.921 83.7008 28.8001H79.8608ZM75.8528 28.8001H72.0128C72.0128 30.921 73.7319 32.6401 75.8528 32.6401V28.8001ZM75.8528 10.2721L78.8089 7.82135C77.7759 6.57534 76.0726 6.11078 74.5501 6.65982C73.0275 7.20887 72.0128 8.65363 72.0128 10.2721H75.8528ZM85.8608 22.3441L82.9044 24.795C83.9374 26.0408 85.6409 26.5055 87.1633 25.9564C88.6858 25.4075 89.7008 23.9626 89.7008 22.3441H85.8608ZM102.122 15.1441L100.232 18.4871C101.421 19.159 102.877 19.1491 104.057 18.4608C105.236 17.7726 105.962 16.5098 105.962 15.1441H102.122ZM102.122 12.7921V8.95214C100.001 8.95214 98.2817 10.6714 98.2817 12.7921H102.122ZM106.13 12.7921H109.97C109.97 10.6714 108.25 8.95214 106.13 8.95214V12.7921ZM106.13 30.7921V34.6321C108.25 34.6321 109.97 32.913 109.97 30.7921H106.13ZM102.122 30.7921H98.2817C98.2817 32.913 100.001 34.6321 102.122 34.6321V30.7921ZM102.122 28.4641H105.962C105.962 27.0985 105.236 25.8356 104.057 25.1473C102.877 24.4592 101.421 24.4492 100.232 25.1212L102.122 28.4641ZM93.1457 27.1681L90.4157 29.8688L90.4304 29.8835L93.1457 27.1681ZM96.0017 24.3361L93.2864 27.0515C93.2964 27.0616 93.3068 27.0716 93.3171 27.0817L96.0017 24.3361ZM101.042 19.2721L98.2961 21.9568C98.3062 21.967 98.3163 21.9772 98.3264 21.9874L101.042 19.2721ZM3.97038 54.4081H0.130371C0.130371 56.529 1.8496 58.2481 3.97038 58.2481V54.4081ZM3.97038 34.3921V30.5521C1.8496 30.5521 0.130371 32.2715 0.130371 34.3921H3.97038ZM7.97838 34.3921H11.8184C11.8184 32.2715 10.0991 30.5521 7.97838 30.5521V34.3921ZM7.97838 36.7441H4.13838C4.13838 38.1097 4.86366 39.3726 6.04319 40.0609C7.22271 40.749 8.67901 40.7591 9.86787 40.0871L7.97838 36.7441ZM16.9544 38.0401L14.239 40.7555L14.2538 40.7701L16.9544 38.0401ZM7.97838 50.0641L9.86787 46.7212C8.67901 46.0492 7.22271 46.0592 6.04319 46.7473C4.86366 47.4356 4.13838 48.6985 4.13838 50.0641H7.97838ZM7.97838 54.4081V58.2481C10.0991 58.2481 11.8184 56.529 11.8184 54.4081H7.97838ZM9.03438 40.8721L6.31909 38.1568C6.30891 38.1671 6.29881 38.1772 6.28875 38.1875L9.03438 40.8721ZM9.03438 45.9361L6.28875 48.6208C6.30887 48.6414 6.32919 48.6616 6.34976 48.6817L9.03438 45.9361ZM14.0984 45.9361L16.783 48.6817C16.7933 48.6716 16.8035 48.6616 16.8137 48.6515L14.0984 45.9361ZM34.9738 46.0081V49.8481C37.0947 49.8481 38.8138 48.129 38.8138 46.0081H34.9738ZM23.8379 46.0081V42.1681C22.6826 42.1681 21.5886 42.6882 20.8594 43.5844C20.1302 44.4805 19.8432 45.6572 20.078 46.7886L23.8379 46.0081ZM25.0858 48.1441L22.5522 51.0296C22.5637 51.0397 22.5752 51.0498 22.5868 51.0596L25.0858 48.1441ZM27.9658 49.0081H31.8058C31.8058 46.8875 30.0867 45.1681 27.9658 45.1681V49.0081ZM27.9658 52.9921V56.8321C30.0867 56.8321 31.8058 55.113 31.8058 52.9921H27.9658ZM32.7418 38.0401L30.0265 40.7555L30.0413 40.7701L32.7418 38.0401ZM24.0538 42.0001L20.5698 40.3856C20.0187 41.5746 20.1122 42.9628 20.8177 44.0672C21.5232 45.1717 22.7433 45.8401 24.0538 45.8401V42.0001ZM30.6538 42.0001V45.8401C31.9505 45.8401 33.1599 45.1856 33.8689 44.0999C34.5781 43.0141 34.6913 41.644 34.1698 40.4564L30.6538 42.0001ZM29.3338 40.4161L27.1261 43.558C27.1453 43.5714 27.1645 43.5848 27.1839 43.5978L29.3338 40.4161ZM25.3978 40.4161L27.5477 43.5978C27.5672 43.5848 27.5864 43.5714 27.6056 43.558L25.3978 40.4161ZM47.7913 37.9441L50.5741 40.5901C52.0265 39.0625 51.9761 36.6498 50.461 35.1841L47.7913 37.9441ZM45.0073 40.8721L42.3418 43.6364C43.0781 44.3466 44.0677 44.7335 45.0905 44.7112C46.1134 44.6891 47.0852 44.2595 47.7901 43.5181L45.0073 40.8721ZM43.8553 40.0321L42.3241 43.5536C42.3589 43.5688 42.3939 43.5834 42.4289 43.5976L43.8553 40.0321ZM39.8713 45.9361L37.1559 48.6515C37.166 48.6616 37.1763 48.6716 37.1866 48.6817L39.8713 45.9361ZM43.8553 46.7521L42.4289 43.1867C42.3939 43.2008 42.3589 43.2155 42.3241 43.2306L43.8553 46.7521ZM45.0073 45.9361L47.7901 43.2901C46.3409 41.7661 43.9354 41.6912 42.3941 43.1221L45.0073 45.9361ZM47.7913 48.8641L50.461 51.6241C51.9761 50.1584 52.0265 47.7457 50.5741 46.2181L47.7913 48.8641ZM37.0153 48.7681L34.2853 51.4688L34.2999 51.4835L37.0153 48.7681ZM52.2106 31.3921H56.0506C56.0506 29.2715 54.3313 27.5521 52.2106 27.5521V31.3921ZM52.2106 40.3921H48.3706C48.3706 42.513 50.0897 44.2321 52.2106 44.2321V40.3921ZM58.2106 40.3921V44.2321C60.3313 44.2321 62.0506 42.513 62.0506 40.3921H58.2106ZM58.2106 36.4081V32.5681C56.0897 32.5681 54.3706 34.2875 54.3706 36.4081H58.2106ZM62.2186 36.4081H66.0586C66.0586 34.2875 64.3393 32.5681 62.2186 32.5681V36.4081ZM62.2186 50.4001V54.2401C64.3393 54.2401 66.0586 52.521 66.0586 50.4001H62.2186ZM58.2106 50.4001H54.3706C54.3706 52.521 56.0897 54.2401 58.2106 54.2401V50.4001ZM58.2106 44.4001H62.0506C62.0506 42.2795 60.3313 40.5601 58.2106 40.5601V44.4001ZM52.2106 44.4001V40.5601C50.0897 40.5601 48.3706 42.2795 48.3706 44.4001H52.2106ZM52.2106 50.4001V54.2401C54.3313 54.2401 56.0506 52.521 56.0506 50.4001H52.2106ZM48.2026 50.4001H44.3626C44.3626 52.521 46.0817 54.2401 48.2026 54.2401V50.4001ZM48.2026 31.3921V27.5521C46.0817 27.5521 44.3626 29.2715 44.3626 31.3921H48.2026ZM63.7436 36.4081V32.5681C61.6227 32.5681 59.9036 34.2875 59.9036 36.4081H63.7436ZM67.7516 36.4081H71.5916C71.5916 34.2875 69.8722 32.5681 67.7516 32.5681V36.4081ZM67.7516 50.4001V54.2401C69.8722 54.2401 71.5916 52.521 71.5916 50.4001H67.7516ZM63.7436 50.4001H59.9036C59.9036 52.521 61.6227 54.2401 63.7436 54.2401V50.4001ZM67.4396 31.1041L64.7242 33.8195C64.7396 33.8348 64.7549 33.85 64.7705 33.8651L67.4396 31.1041ZM64.0556 34.5121L61.2946 37.1809C61.3097 37.1965 61.3249 37.2121 61.3402 37.2275L64.0556 34.5121ZM79.2845 36.4081V32.5681C77.1639 32.5681 75.4445 34.2875 75.4445 36.4081H79.2845ZM83.2925 36.4081H87.1325C87.1325 34.2875 85.4134 32.5681 83.2925 32.5681V36.4081ZM83.2925 54.9361L80.3364 57.387C81.3694 58.6328 83.0727 59.0975 84.5953 58.5484C86.1178 57.9995 87.1325 56.5547 87.1325 54.9361H83.2925ZM73.2845 42.8641L76.2409 40.4132C75.2079 39.1674 73.5046 38.7028 71.9821 39.2519C70.4595 39.8008 69.4445 41.2456 69.4445 42.8641H73.2845ZM73.2845 50.4001V54.2401C75.4054 54.2401 77.1245 52.521 77.1245 50.4001H73.2845ZM69.2765 50.4001H65.4365C65.4365 52.521 67.1559 54.2401 69.2765 54.2401V50.4001ZM69.2765 31.8721L72.2329 29.4212C71.1999 28.1754 69.4966 27.7108 67.9741 28.2599C66.4515 28.8088 65.4365 30.2536 65.4365 31.8721H69.2765ZM79.2845 43.9441L76.3285 46.395C77.3614 47.6408 79.0647 48.1055 80.5872 47.5564C82.1098 47.0075 83.1245 45.5627 83.1245 43.9441H79.2845ZM97.3455 37.9441L100.128 40.5901C101.581 39.0625 101.53 36.6498 100.015 35.1841L97.3455 37.9441ZM94.5615 40.8721L91.896 43.6364C92.6326 44.3466 93.6219 44.7335 94.6448 44.7112C95.6676 44.6891 96.6394 44.2595 97.3443 43.5181L94.5615 40.8721ZM93.4095 40.0321L91.8785 43.5536C91.9131 43.5688 91.9481 43.5834 91.9834 43.5976L93.4095 40.0321ZM89.4255 45.9361L86.7101 48.6515C86.7205 48.6616 86.7305 48.6716 86.7408 48.6817L89.4255 45.9361ZM93.4095 46.7521L91.9834 43.1867C91.9481 43.2008 91.9131 43.2155 91.8785 43.2306L93.4095 46.7521ZM94.5615 45.9361L97.3443 43.2901C95.8952 41.7661 93.4897 41.6912 91.9486 43.1221L94.5615 45.9361ZM97.3455 48.8641L100.015 51.6241C101.53 50.1584 101.581 47.7457 100.128 46.2181L97.3455 48.8641ZM86.5695 48.7681L83.8395 51.4688L83.8544 51.4835L86.5695 48.7681ZM101.765 31.3921H105.605C105.605 29.2715 103.886 27.5521 101.765 27.5521V31.3921ZM101.765 40.3921H97.9248C97.9248 42.513 99.6442 44.2321 101.765 44.2321V40.3921ZM107.765 40.3921V44.2321C109.886 44.2321 111.605 42.513 111.605 40.3921H107.765ZM107.765 36.4081V32.5681C105.644 32.5681 103.925 34.2875 103.925 36.4081H107.765ZM111.773 36.4081H115.613C115.613 34.2875 113.894 32.5681 111.773 32.5681V36.4081ZM111.773 50.4001V54.2401C113.894 54.2401 115.613 52.521 115.613 50.4001H111.773ZM107.765 50.4001H103.925C103.925 52.521 105.644 54.2401 107.765 54.2401V50.4001ZM107.765 44.4001H111.605C111.605 42.2795 109.886 40.5601 107.765 40.5601V44.4001ZM101.765 44.4001V40.5601C99.6442 40.5601 97.9248 42.2795 97.9248 44.4001H101.765ZM101.765 50.4001V54.2401C103.886 54.2401 105.605 52.521 105.605 50.4001H101.765ZM97.7568 50.4001H93.9168C93.9168 52.521 95.6362 54.2401 97.7568 54.2401V50.4001ZM97.7568 31.3921V27.5521C95.6362 27.5521 93.9168 29.2715 93.9168 31.3921H97.7568ZM124.026 36.7441L122.136 40.0871C123.325 40.7591 124.782 40.749 125.961 40.0609C127.141 39.3726 127.866 38.1097 127.866 36.7441H124.026ZM124.026 34.3921V30.5521C121.905 30.5521 120.186 32.2715 120.186 34.3921H124.026ZM128.034 34.3921H131.874C131.874 32.2715 130.155 30.5521 128.034 30.5521V34.3921ZM128.034 52.3921V56.2321C130.155 56.2321 131.874 54.513 131.874 52.3921H128.034ZM124.026 52.3921H120.186C120.186 54.513 121.905 56.2321 124.026 56.2321V52.3921ZM124.026 50.0641H127.866C127.866 48.6985 127.141 47.4356 125.961 46.7473C124.782 46.0592 123.325 46.0492 122.136 46.7212L124.026 50.0641ZM115.05 48.7681L112.32 51.4688L112.334 51.4835L115.05 48.7681ZM117.906 45.9361L115.19 48.6515C115.201 48.6616 115.211 48.6716 115.221 48.6817L117.906 45.9361ZM122.946 40.8721L120.2 43.5568C120.21 43.5671 120.22 43.5772 120.231 43.5875L122.946 40.8721ZM25.532 15.8234L29.6792 13.2602L25.6414 6.72726L21.4941 9.29046L25.532 15.8234ZM24.3946 12.0138L31.681 23.793L38.2124 19.7528L30.926 7.97363L24.3946 12.0138ZM38.2124 23.793L45.4988 12.0138L38.9674 7.97363L31.681 19.7528L38.2124 23.793ZM40.2142 13.2602L44.3614 15.8234L48.3992 9.29046L44.252 6.72726L40.2142 13.2602ZM43.1141 10.5373L31.6805 29.0269L38.2126 33.0661L49.6462 14.5766L43.1141 10.5373ZM38.2126 29.0269L26.779 10.5373L20.247 14.5766L31.6805 33.0661L38.2126 29.0269ZM62.2299 12.4129V9.59054H54.5499V12.4129H62.2299ZM58.3899 13.4305H63.1995V5.75054H58.3899V13.4305ZM59.3595 9.59054V31.1905H67.0395V9.59054H59.3595ZM63.1995 27.3505H58.3899V35.0305H63.1995V27.3505ZM62.2299 31.1905V28.3969H54.5499V31.1905H62.2299ZM56.5004 25.054C55.765 25.4696 54.9781 25.6801 54.0699 25.6801V33.3601C56.2719 33.3601 58.3649 32.822 60.2794 31.7399L56.5004 25.054ZM54.0699 25.6801C52.5776 25.6801 51.4025 25.1951 50.3338 24.1264L44.9033 29.5571C47.4058 32.0596 50.5316 33.3601 54.0699 33.3601V25.6801ZM50.3485 24.1412C49.2944 23.0756 48.8091 21.8961 48.8091 20.3905H41.1291C41.1291 23.9154 42.41 27.0368 44.8887 29.5424L50.3485 24.1412ZM48.8091 20.3905C48.8091 18.8859 49.2932 17.7241 50.3338 16.6834L44.9033 11.2528C42.4112 13.7449 41.1291 16.8647 41.1291 20.3905H48.8091ZM50.3338 16.6834C51.4025 15.6147 52.5776 15.1297 54.0699 15.1297V7.44974C50.5316 7.44974 47.4058 8.75032 44.9033 11.2528L50.3338 16.6834ZM54.0699 15.1297C54.9781 15.1297 55.765 15.3403 56.5004 15.7559L60.2794 9.06998C58.3649 7.98794 56.2719 7.44974 54.0699 7.44974V15.1297ZM54.0699 12.2305C51.8329 12.2305 49.8661 13.1156 48.3305 14.6512L53.761 20.0818C53.887 19.9559 53.9559 19.9268 53.9624 19.924C53.9691 19.9212 53.9753 19.9191 53.9859 19.917C53.9969 19.9148 54.0231 19.9105 54.0699 19.9105V12.2305ZM48.3305 14.6512C46.7948 16.1869 45.9099 18.1535 45.9099 20.3905H53.5899C53.5899 20.3438 53.594 20.3176 53.5961 20.3066C53.5983 20.2961 53.6005 20.2898 53.6033 20.2832C53.6062 20.2767 53.6353 20.2078 53.761 20.0818L48.3305 14.6512ZM45.9099 20.3905C45.9099 22.6282 46.7811 24.6092 48.3305 26.1587L53.761 20.7281C53.641 20.6079 53.6125 20.5411 53.6084 20.5316C53.6057 20.5252 53.5899 20.4916 53.5899 20.3905H45.9099ZM48.3613 26.1889C49.9037 27.6973 51.8612 28.5505 54.0699 28.5505V20.8705C53.9753 20.8705 53.9427 20.8558 53.9338 20.8521C53.9216 20.847 53.8527 20.8172 53.7303 20.6977L48.3613 26.1889ZM54.0699 28.5505C56.2822 28.5505 58.2603 27.7074 59.809 26.1587L54.3785 20.7281C54.2758 20.8307 54.2228 20.851 54.2201 20.8521C54.2189 20.8526 54.1827 20.8705 54.0699 20.8705V28.5505ZM59.809 26.1587C61.3585 24.6092 62.2299 22.6283 62.2299 20.3905H54.5499C54.5499 20.4916 54.5338 20.5252 54.5312 20.5316C54.5271 20.5411 54.4988 20.6079 54.3785 20.7281L59.809 26.1587ZM62.2299 20.3905C62.2299 18.1535 61.3448 16.1869 59.809 14.6512L54.3785 20.0818C54.5045 20.2078 54.5336 20.2767 54.5362 20.2832C54.5391 20.2898 54.5413 20.2962 54.5434 20.3066C54.5456 20.3176 54.5499 20.3438 54.5499 20.3905H62.2299ZM59.8395 14.6819C58.298 13.1054 56.3105 12.2305 54.0699 12.2305V19.9105C54.1253 19.9105 54.1573 19.9156 54.1709 19.9182C54.1839 19.9208 54.1892 19.923 54.1916 19.924C54.1942 19.9252 54.206 19.9304 54.2285 19.9462C54.2518 19.9624 54.2924 19.9941 54.3483 20.0512L59.8395 14.6819ZM65.0372 15.8497H69.8468V8.16974H65.0372V15.8497ZM66.0068 12.0097V28.8001H73.6868V12.0097H66.0068ZM69.8468 24.9601H65.0372V32.6401H69.8468V24.9601ZM68.8772 28.8001V12.0097H61.1972V28.8001H68.8772ZM67.4564 8.64974C67.3875 8.64974 67.2481 8.63536 67.081 8.56614C66.914 8.49693 66.8055 8.40866 66.757 8.36022L72.1877 2.92965C70.9109 1.65294 69.2624 0.969727 67.4564 0.969727V8.64974ZM66.8036 8.40585C66.7508 8.3549 66.6567 8.242 66.5833 8.06831C66.5101 7.89518 66.4964 7.7535 66.4964 7.68974H74.1764C74.1764 5.85009 73.4713 4.1697 72.1412 2.88402L66.8036 8.40585ZM66.4964 7.68974C66.4964 7.60317 66.5149 7.45859 66.5833 7.29674C66.6505 7.1375 66.7304 7.04594 66.757 7.01922L72.1877 12.4498C73.4559 11.1817 74.1764 9.53426 74.1764 7.68974H66.4964ZM66.757 7.01922C66.8055 6.97077 66.914 6.88254 67.081 6.81333C67.2481 6.74409 67.3875 6.72974 67.4564 6.72974V14.4097C69.2624 14.4097 70.9109 13.7265 72.1877 12.4498L66.757 7.01922ZM67.4564 6.72974C67.5034 6.72974 67.6301 6.73974 67.7924 6.80603C67.9565 6.87306 68.0696 6.96196 68.1269 7.01925L62.6962 12.4498C63.9925 13.746 65.659 14.4097 67.4564 14.4097V6.72974ZM68.1725 7.06564C68.2037 7.09792 68.2789 7.18926 68.3401 7.33934C68.402 7.49066 68.4164 7.62026 68.4164 7.68974H60.7364C60.7364 9.4923 61.4153 11.1255 62.6506 12.4034L68.1725 7.06564ZM68.4164 7.68974C68.4164 7.7368 68.4063 7.86345 68.3401 8.02574C68.2731 8.18982 68.1841 8.30294 68.1269 8.36022L62.6962 2.92965C61.4002 4.22577 60.7364 5.89238 60.7364 7.68974H68.4164ZM68.1269 8.36022C68.0696 8.41749 67.9565 8.50641 67.7924 8.57342C67.6301 8.6397 67.5034 8.64974 67.4564 8.64974V0.969727C65.659 0.969727 63.9925 1.6335 62.6962 2.92965L68.1269 8.36022ZM85.8608 18.6481H89.8688V10.9681H85.8608V18.6481ZM92.8248 30.8852L82.8168 18.8134L76.9044 23.7149L86.9125 35.787L92.8248 30.8852ZM76.0208 21.2641V28.8001H83.7008V21.2641H76.0208ZM79.8608 24.9601H75.8528V32.6401H79.8608V24.9601ZM79.6928 28.8001V10.2721H72.0128V28.8001H79.6928ZM72.8965 12.7229L82.9044 24.795L88.8168 19.8934L78.8089 7.82135L72.8965 12.7229ZM89.7008 22.3441V14.8081H82.0208V22.3441H89.7008ZM105.962 15.1441V12.7921H98.2817V15.1441H105.962ZM102.122 16.6321H106.13V8.95214H102.122V16.6321ZM102.29 12.7921V30.7921H109.97V12.7921H102.29ZM106.13 26.9521H102.122V34.6321H106.13V26.9521ZM105.962 30.7921V28.4641H98.2817V30.7921H105.962ZM100.232 25.1212C99.7177 25.412 99.1707 25.5601 98.5217 25.5601V33.2401C100.465 33.2401 102.318 32.7642 104.011 31.8071L100.232 25.1212ZM98.5217 25.5601C97.4487 25.5601 96.632 25.2239 95.8609 24.4528L90.4304 29.8835C92.6352 32.0884 95.4027 33.2401 98.5217 33.2401V25.5601ZM95.8755 24.4676C95.1159 23.6996 94.7777 22.8785 94.7777 21.7921H87.0977C87.0977 24.8977 88.2315 27.6608 90.4157 29.8688L95.8755 24.4676ZM94.7777 21.7921C94.7777 20.7067 95.1147 19.9017 95.8609 19.1554L90.4304 13.7248C88.2327 15.9225 87.0977 18.6856 87.0977 21.7921H94.7777ZM95.8609 19.1554C96.632 18.3843 97.4487 18.0481 98.5217 18.0481V10.3681C95.4027 10.3681 92.6352 11.5199 90.4304 13.7248L95.8609 19.1554ZM98.5217 18.0481C99.1707 18.0481 99.7177 18.1963 100.232 18.4871L104.011 11.8012C102.318 10.8439 100.465 10.3681 98.5217 10.3681V18.0481ZM98.5217 14.3521C96.4767 14.3521 94.6781 15.1652 93.2864 16.5568L98.7169 21.9874C98.7459 21.9585 98.7577 21.9516 98.75 21.9568C98.7416 21.9626 98.7195 21.9766 98.6842 21.9916C98.6489 22.0068 98.6117 22.0181 98.5772 22.0251C98.5431 22.0319 98.5229 22.0321 98.5217 22.0321V14.3521ZM93.2864 16.5568C91.8946 17.9485 91.0817 19.7471 91.0817 21.7921H98.7617C98.7617 21.7918 98.7617 21.7923 98.7617 21.7921C98.7617 21.7928 98.7615 21.7948 98.7615 21.7962C98.7615 21.7989 98.7612 21.8027 98.7608 21.8076C98.7598 21.8177 98.7579 21.8313 98.7545 21.8477C98.7478 21.8822 98.7363 21.9194 98.7212 21.9548C98.706 21.9898 98.6921 22.0121 98.6864 22.0204C98.6811 22.028 98.688 22.0163 98.7169 21.9874L93.2864 16.5568ZM91.0817 21.7921C91.0817 23.8346 91.8809 25.646 93.2864 27.0515L98.7169 21.6208C98.6907 21.5945 98.6854 21.5849 98.6916 21.5939C98.6984 21.6036 98.7121 21.6259 98.7265 21.6596C98.7406 21.6934 98.7507 21.7273 98.7564 21.7566C98.7622 21.7853 98.7617 21.7989 98.7617 21.7921H91.0817ZM93.3171 27.0817C94.7156 28.4492 96.505 29.2321 98.5217 29.2321V21.5521C98.5174 21.5521 98.5323 21.5519 98.5611 21.5575C98.5904 21.5632 98.6235 21.573 98.6556 21.5865C98.6878 21.6 98.7087 21.6127 98.7169 21.6182C98.7243 21.6233 98.7135 21.6171 98.6864 21.5905L93.3171 27.0817ZM98.5217 29.2321C100.539 29.2321 102.349 28.4593 103.757 27.0515L98.3264 21.6208C98.3076 21.6395 98.305 21.639 98.3204 21.6286C98.3362 21.6177 98.3633 21.6017 98.3996 21.5865C98.4361 21.5713 98.4701 21.5616 98.4975 21.5563C98.5241 21.5511 98.534 21.5521 98.5217 21.5521V29.2321ZM103.757 27.0515C105.162 25.646 105.962 23.8347 105.962 21.7921H98.2817C98.2817 21.7989 98.2812 21.7853 98.2868 21.7566C98.2925 21.7273 98.3026 21.6934 98.317 21.6596C98.3312 21.6259 98.3451 21.6036 98.3518 21.5939C98.358 21.5849 98.3528 21.5945 98.3264 21.6208L103.757 27.0515ZM105.962 21.7921C105.962 19.7471 105.149 17.9485 103.757 16.5568L98.3264 21.9874C98.3552 22.0163 98.3621 22.028 98.3568 22.0204C98.3511 22.0121 98.3372 21.9898 98.322 21.9548C98.3069 21.9194 98.2957 21.8823 98.2887 21.8477C98.282 21.8137 98.2817 21.7934 98.2817 21.7921H105.962ZM103.787 16.5875C102.386 15.155 100.567 14.3521 98.5217 14.3521V22.0321C98.5285 22.0321 98.5133 22.0326 98.4814 22.0263C98.449 22.0199 98.4106 22.0086 98.371 21.9916C98.3316 21.9748 98.3033 21.9575 98.2872 21.9462C98.2719 21.9355 98.2755 21.9357 98.2961 21.9568L103.787 16.5875ZM7.81038 54.4081V34.3921H0.130371V54.4081H7.81038ZM3.97038 38.2321H7.97838V30.5521H3.97038V38.2321ZM4.13838 34.3921V36.7441H11.8184V34.3921H4.13838ZM9.86787 40.0871C10.3823 39.7962 10.9293 39.6481 11.5784 39.6481V31.9681C9.63543 31.9681 7.78242 32.444 6.08886 33.4012L9.86787 40.0871ZM11.5784 39.6481C12.6514 39.6481 13.4679 39.9844 14.239 40.7555L19.6697 35.3248C17.4648 33.1199 14.6974 31.9681 11.5784 31.9681V39.6481ZM14.2538 40.7701C15.0115 41.5196 15.3464 42.32 15.3464 43.3921H23.0264C23.0264 40.2721 21.8732 37.5047 19.655 35.3101L14.2538 40.7701ZM15.3464 43.3921C15.3464 44.4652 15.0102 45.2816 14.2391 46.0528L19.6697 51.4835C21.8746 49.2786 23.0264 46.5112 23.0264 43.3921H15.3464ZM14.2391 46.0528C13.468 46.8239 12.6514 47.1601 11.5784 47.1601V54.8401C14.6974 54.8401 17.4648 53.6884 19.6697 51.4835L14.2391 46.0528ZM11.5784 47.1601C10.9293 47.1601 10.3823 47.012 9.86787 46.7212L6.08888 53.4071C7.78242 54.3644 9.63543 54.8401 11.5784 54.8401V47.1601ZM4.13838 50.0641V54.4081H11.8184V50.0641H4.13838ZM7.97838 50.5681H3.97038V58.2481H7.97838V50.5681ZM19.0184 43.3921C19.0184 41.3471 18.2053 39.5485 16.8137 38.1568L11.3831 43.5875C11.412 43.6163 11.4189 43.628 11.4136 43.6204C11.4079 43.6122 11.3939 43.5899 11.3789 43.5548C11.3637 43.5193 11.3523 43.4824 11.3454 43.4478C11.3421 43.4312 11.3403 43.4178 11.3394 43.4077C11.3389 43.4027 11.3386 43.3988 11.3385 43.3962C11.3384 43.3948 11.3384 43.3938 11.3384 43.3931C11.3384 43.3928 11.3384 43.3933 11.3384 43.3931L19.0184 43.3921ZM16.8137 38.1568C15.422 36.7652 13.6234 35.9521 11.5784 35.9521V43.6321C11.5771 43.6321 11.5568 43.6319 11.5228 43.6252C11.4882 43.6182 11.4511 43.6069 11.4157 43.5916C11.3806 43.5767 11.3584 43.5625 11.3501 43.5568C11.3425 43.5515 11.3542 43.5584 11.3831 43.5875L16.8137 38.1568ZM11.5784 35.9521C9.53583 35.9521 7.72448 36.7516 6.31909 38.1568L11.7497 43.5875C11.7759 43.5611 11.7856 43.5558 11.7766 43.562C11.7669 43.5688 11.7446 43.5824 11.7109 43.5968C11.6771 43.6112 11.6432 43.6211 11.6139 43.6268C11.5851 43.6326 11.5716 43.6321 11.5784 43.6321V35.9521ZM6.28875 38.1875C4.92128 39.586 4.13838 41.3754 4.13838 43.3921H11.8184C11.8184 43.388 11.8186 43.4027 11.813 43.4317C11.8072 43.461 11.7975 43.4939 11.784 43.5263C11.7705 43.5584 11.7578 43.5791 11.7523 43.5872C11.7472 43.5947 11.7534 43.5839 11.78 43.5568L6.28875 38.1875ZM4.13838 43.3921C4.13838 45.4067 4.90799 47.2086 6.28875 48.6208L11.78 43.2515C11.756 43.227 11.7514 43.2184 11.7574 43.227C11.7638 43.2366 11.7763 43.2575 11.789 43.288C11.8017 43.3187 11.8101 43.3484 11.8148 43.3724C11.8194 43.3962 11.8184 43.4044 11.8184 43.3921H4.13838ZM6.34976 48.6817C7.7619 50.0624 9.56396 50.8321 11.5784 50.8321V43.1521C11.5662 43.1521 11.5744 43.1512 11.598 43.1557C11.6221 43.1603 11.6518 43.1687 11.6825 43.1816C11.7131 43.1944 11.7339 43.2066 11.7434 43.2131C11.7523 43.2191 11.7435 43.2145 11.719 43.1905L6.34976 48.6817ZM11.5784 50.8321C13.595 50.8321 15.3844 50.0492 16.783 48.6817L11.4138 43.1905C11.3866 43.2172 11.3758 43.2234 11.3833 43.2181C11.3914 43.2126 11.4122 43.1999 11.4443 43.1864C11.4766 43.173 11.5096 43.1632 11.5389 43.1574C11.5677 43.1519 11.5825 43.1521 11.5784 43.1521V50.8321ZM16.8137 48.6515C18.2191 47.246 19.0184 45.4348 19.0184 43.3921L11.3384 43.3931C11.3384 43.3998 11.3379 43.3854 11.3435 43.3566C11.3493 43.3273 11.3593 43.2935 11.3737 43.2596C11.388 43.226 11.4018 43.2037 11.4084 43.1939C11.4146 43.185 11.4094 43.1946 11.3831 43.2208L16.8137 48.6515ZM34.9738 42.1681H23.8379V49.8481H34.9738V42.1681ZM20.078 46.7886C20.4249 48.4597 21.2752 49.9084 22.5522 51.0296L27.6195 45.2586C27.5996 45.2411 27.5912 45.2312 27.5902 45.23C27.5897 45.2293 27.5929 45.2332 27.5974 45.2408C27.602 45.2488 27.6044 45.2548 27.6051 45.2562C27.6056 45.2574 27.6022 45.249 27.5977 45.2279L20.078 46.7886ZM22.5868 51.0596C23.9216 52.2037 25.5584 52.8481 27.3658 52.8481V45.1681C27.3723 45.1681 27.3925 45.1688 27.4234 45.1744C27.4544 45.1799 27.488 45.189 27.5206 45.2012C27.5917 45.2284 27.6135 45.2531 27.5849 45.2286L22.5868 51.0596ZM27.3658 52.8481H27.9658V45.1681H27.3658V52.8481ZM24.1258 49.0081V52.9921H31.8058V49.0081H24.1258ZM27.9658 49.1521H27.3658V56.8321H27.9658V49.1521ZM27.3658 49.1521C26.2928 49.1521 25.4763 48.8159 24.7052 48.0448L19.2746 53.4755C21.4795 55.6804 24.2468 56.8321 27.3658 56.8321V49.1521ZM24.7052 48.0448C23.9588 47.2986 23.6219 46.4936 23.6219 45.4081H15.9419C15.9419 48.5147 17.0769 51.2778 19.2746 53.4755L24.7052 48.0448ZM23.6219 45.4081V43.3921H15.9419V45.4081H23.6219ZM23.6219 43.3921C23.6219 42.3066 23.9588 41.5016 24.7052 40.7555L19.2746 35.3248C17.0769 37.5224 15.9419 40.2856 15.9419 43.3921H23.6219ZM24.7052 40.7555C25.4763 39.9844 26.2928 39.6481 27.3658 39.6481V31.9681C24.2468 31.9681 21.4795 33.1199 19.2746 35.3248L24.7052 40.7555ZM27.3658 39.6481C28.4389 39.6481 29.2556 39.9844 30.0265 40.7555L35.4572 35.3248C33.2523 33.1199 30.4849 31.9681 27.3658 31.9681V39.6481ZM30.0413 40.7701C30.799 41.5196 31.1338 42.32 31.1338 43.3921H38.8138C38.8138 40.2721 37.6606 37.5047 35.4425 35.3101L30.0413 40.7701ZM31.1338 43.3921V46.0081H38.8138V43.3921H31.1338ZM24.0538 45.8401H30.6538V38.1601H24.0538V45.8401ZM34.1698 40.4564C33.5912 39.1384 32.6785 38.0416 31.4837 37.2344L27.1839 43.5978C27.1897 43.6019 27.1882 43.6012 27.1817 43.5954C27.1753 43.5896 27.1669 43.5812 27.158 43.5704C27.1491 43.5596 27.1424 43.5503 27.1383 43.5433C27.1342 43.5368 27.1349 43.5356 27.1383 43.5433L34.1698 40.4564ZM31.5416 37.2743C30.3065 36.4064 28.8802 35.9521 27.3658 35.9521V43.6321C27.3505 43.6321 27.3017 43.629 27.2372 43.6086C27.1729 43.5882 27.134 43.5637 27.1261 43.558L31.5416 37.2743ZM27.3658 35.9521C25.8514 35.9521 24.4251 36.4064 23.1901 37.2743L27.6056 43.558C27.5977 43.5637 27.5588 43.5882 27.4945 43.6086C27.4301 43.629 27.3814 43.6321 27.3658 43.6321V35.9521ZM23.248 37.2344C22.0697 38.0305 21.1639 39.1036 20.5698 40.3856L27.5379 43.6146C27.5451 43.5992 27.5497 43.592 27.5504 43.5908C27.5509 43.5899 27.5513 43.5935 27.5477 43.5978C27.5441 43.6019 27.5391 43.6038 27.5374 43.6052C27.536 43.6067 27.5386 43.604 27.5477 43.5978L23.248 37.2344ZM45.0082 35.2981L42.2242 38.2261L47.7901 43.5181L50.5741 40.5901L45.0082 35.2981ZM47.6727 38.108C47.1085 37.5637 46.2953 36.8723 45.2813 36.4667L42.4289 43.5976C42.3097 43.5498 42.2264 43.5049 42.1817 43.479C42.1364 43.4526 42.1157 43.4372 42.1208 43.4408C42.1253 43.4442 42.1469 43.4605 42.1865 43.4941C42.2257 43.5277 42.2773 43.574 42.3418 43.6364L47.6727 38.108ZM45.3862 36.5106C44.3521 36.0608 43.2807 35.9521 42.3913 35.9521V43.6321C42.4597 43.6321 42.5103 43.6345 42.5451 43.6369C42.5801 43.6396 42.5948 43.642 42.5919 43.6415C42.5893 43.641 42.5638 43.6369 42.5201 43.6244C42.4762 43.6122 42.4088 43.5906 42.3241 43.5536L45.3862 36.5106ZM42.3913 35.9521C40.3462 35.9521 38.5477 36.7652 37.1559 38.1568L42.5864 43.5875C42.6154 43.5584 42.6272 43.5515 42.6195 43.5568C42.6111 43.5625 42.589 43.5767 42.5537 43.5916C42.5185 43.6069 42.4813 43.6182 42.4467 43.6252C42.4126 43.6319 42.3925 43.6321 42.3913 43.6321V35.9521ZM37.1559 38.1568C35.7641 39.5485 34.9513 41.3471 34.9513 43.3921H42.6313C42.6313 43.3916 42.6313 43.3926 42.6313 43.3921C42.6313 43.3928 42.631 43.3948 42.631 43.3962C42.631 43.3988 42.6308 43.4027 42.6303 43.4077C42.6293 43.4178 42.6274 43.4312 42.6241 43.4478C42.6171 43.4824 42.6058 43.5193 42.5907 43.5548C42.5756 43.5899 42.5617 43.6122 42.5559 43.6204C42.5506 43.628 42.5576 43.6163 42.5864 43.5875L37.1559 38.1568ZM34.9513 43.3921C34.9513 45.4348 35.7505 47.246 37.1559 48.6515L42.5864 43.2208C42.5602 43.1946 42.5549 43.185 42.5612 43.1939C42.5679 43.2037 42.5816 43.226 42.596 43.2596C42.6101 43.2935 42.6202 43.3273 42.626 43.3566C42.6317 43.3854 42.6313 43.3988 42.6313 43.3921H34.9513ZM37.1866 48.6817C38.5851 50.0492 40.3745 50.8321 42.3913 50.8321V43.1521C42.3869 43.1521 42.4018 43.1519 42.4306 43.1574C42.4599 43.1632 42.493 43.173 42.5252 43.1864C42.5573 43.1999 42.5782 43.2126 42.5864 43.2181C42.5938 43.2234 42.583 43.2172 42.5559 43.1905L37.1866 48.6817ZM42.3913 50.8321C43.2807 50.8321 44.3521 50.7234 45.3862 50.2736L42.3241 43.2306C42.4088 43.1939 42.4762 43.172 42.5201 43.1598C42.5638 43.1473 42.5893 43.1432 42.5919 43.1428C42.5948 43.1423 42.5801 43.1447 42.5451 43.1473C42.5103 43.15 42.4597 43.1521 42.3913 43.1521V50.8321ZM45.2813 50.3176C46.2555 49.9278 47.0513 49.2781 47.6201 48.7501L42.3941 43.1221C42.3293 43.1826 42.2765 43.2284 42.236 43.2618C42.1952 43.2956 42.1714 43.3132 42.1635 43.3187C42.1553 43.3244 42.1712 43.3124 42.2103 43.2904C42.2485 43.2688 42.3221 43.2296 42.4289 43.1867L45.2813 50.3176ZM42.2242 48.5821L45.0082 51.5101L50.5741 46.2181L47.7901 43.2901L42.2242 48.5821ZM45.1213 46.1041C44.3957 46.8059 43.5661 47.1601 42.3913 47.1601V54.8401C45.4724 54.8401 48.2425 53.7702 50.461 51.6241L45.1213 46.1041ZM42.3913 47.1601C41.3182 47.1601 40.5015 46.8239 39.7304 46.0528L34.2999 51.4835C36.5048 53.6884 39.2722 54.8401 42.3913 54.8401V47.1601ZM39.745 46.0676C38.9854 45.2996 38.6473 44.4786 38.6473 43.3921H30.9673C30.9673 46.4977 32.101 49.2608 34.2853 51.4688L39.745 46.0676ZM38.6473 43.3921C38.6473 42.3066 38.9842 41.5016 39.7304 40.7555L34.2999 35.3248C32.1022 37.5224 30.9673 40.2856 30.9673 43.3921H38.6473ZM39.7304 40.7555C40.5015 39.9844 41.3182 39.6481 42.3913 39.6481V31.9681C39.2722 31.9681 36.5048 33.1199 34.2999 35.3248L39.7304 40.7555ZM42.3913 39.6481C43.5661 39.6481 44.3957 40.0024 45.1213 40.7041L50.461 35.1841C48.2425 33.038 45.4724 31.9681 42.3913 31.9681V39.6481ZM48.3706 31.3921V40.3921H56.0506V31.3921H48.3706ZM52.2106 44.2321H58.2106V36.5521H52.2106V44.2321ZM62.0506 40.3921V36.4081H54.3706V40.3921H62.0506ZM58.2106 40.2481H62.2186V32.5681H58.2106V40.2481ZM58.3786 36.4081V50.4001H66.0586V36.4081H58.3786ZM62.2186 46.5601H58.2106V54.2401H62.2186V46.5601ZM62.0506 50.4001V44.4001H54.3706V50.4001H62.0506ZM58.2106 40.5601H52.2106V48.2401H58.2106V40.5601ZM48.3706 44.4001V50.4001H56.0506V44.4001H48.3706ZM52.2106 46.5601H48.2026V54.2401H52.2106V46.5601ZM52.0426 50.4001V31.3921H44.3626V50.4001H52.0426ZM48.2026 35.2321H52.2106V27.5521H48.2026V35.2321ZM63.7436 40.2481H67.7516V32.5681H63.7436V40.2481ZM63.9116 36.4081V50.4001H71.5916V36.4081H63.9116ZM67.7516 46.5601H63.7436V54.2401H67.7516V46.5601ZM67.5836 50.4001V36.4081H59.9036V50.4001H67.5836ZM65.7596 34.2481C65.6249 34.2481 65.4248 34.2222 65.2018 34.1298C64.9786 34.0374 64.819 33.9143 64.7242 33.8195L70.1547 28.3888C68.9708 27.2048 67.4343 26.5681 65.7596 26.5681V34.2481ZM64.7705 33.8651C64.67 33.7676 64.5397 33.6032 64.4422 33.3728C64.3453 33.1427 64.3196 32.9392 64.3196 32.8081H71.9996C71.9996 31.1029 71.3425 29.5362 70.1084 28.3432L64.7705 33.8651ZM64.3196 32.8081C64.3196 32.656 64.3498 32.4503 64.4422 32.2316C64.5337 32.0154 64.6496 31.8716 64.7242 31.7968L70.1547 37.2275C71.3269 36.0553 71.9996 34.5215 71.9996 32.8081H64.3196ZM64.7242 31.7968C64.819 31.702 64.9786 31.5788 65.2018 31.4864C65.4248 31.394 65.6249 31.3681 65.7596 31.3681V39.0481C67.4343 39.0481 68.9708 38.4114 70.1547 37.2275L64.7242 31.7968ZM65.7596 31.3681C65.8738 31.3681 66.0625 31.3897 66.2816 31.4792C66.5024 31.5695 66.667 31.6931 66.7707 31.7968L61.3402 37.2275C62.5436 38.4308 64.0966 39.0481 65.7596 39.0481V31.3681ZM66.8163 31.8433C66.8941 31.9235 67.004 32.0672 67.0885 32.2741C67.1734 32.4822 67.1996 32.673 67.1996 32.8081H59.5196C59.5196 34.4795 60.152 35.9992 61.2946 37.1809L66.8163 31.8433ZM67.1996 32.8081C67.1996 32.9224 67.178 33.111 67.0885 33.3301C66.9982 33.5509 66.8744 33.7158 66.7707 33.8195L61.3402 28.3888C60.1369 29.5921 59.5196 31.1452 59.5196 32.8081H67.1996ZM66.7707 33.8195C66.667 33.9232 66.5024 34.0468 66.2816 34.137C66.0625 34.2265 65.8738 34.2481 65.7596 34.2481V26.5681C64.0966 26.5681 62.5436 27.1854 61.3402 28.3888L66.7707 33.8195ZM79.2845 40.2481H83.2925V32.5681H79.2845V40.2481ZM79.4525 36.4081V54.9361H87.1325V36.4081H79.4525ZM86.2488 52.4852L76.2409 40.4132L70.3285 45.315L80.3364 57.387L86.2488 52.4852ZM69.4445 42.8641V50.4001H77.1245V42.8641H69.4445ZM73.2845 46.5601H69.2765V54.2401H73.2845V46.5601ZM73.1165 50.4001V31.8721H65.4365V50.4001H73.1165ZM66.3204 34.323L76.3285 46.395L82.2408 41.4932L72.2329 29.4212L66.3204 34.323ZM83.1245 43.9441V36.4081H75.4445V43.9441H83.1245ZM94.5627 35.2981L91.7787 38.2261L97.3443 43.5181L100.128 40.5901L94.5627 35.2981ZM97.2269 38.108C96.6627 37.5637 95.8496 36.8723 94.8356 36.4667L91.9834 43.5976C91.8639 43.5498 91.7806 43.5049 91.736 43.479C91.6906 43.4526 91.67 43.4372 91.675 43.4408C91.6796 43.4442 91.7014 43.4605 91.7408 43.4941C91.7799 43.5277 91.8315 43.574 91.896 43.6364L97.2269 38.108ZM94.9407 36.5106C93.9063 36.0608 92.8349 35.9521 91.9455 35.9521V43.6321C92.0139 43.6321 92.0648 43.6345 92.0996 43.6369C92.1344 43.6396 92.1492 43.642 92.1464 43.6415C92.1435 43.641 92.1183 43.6369 92.0744 43.6244C92.0304 43.6122 91.963 43.5906 91.8785 43.5536L94.9407 36.5106ZM91.9455 35.9521C89.9005 35.9521 88.1019 36.7652 86.7101 38.1568L92.1408 43.5875C92.1696 43.5584 92.1814 43.5515 92.1737 43.5568C92.1656 43.5625 92.1432 43.5767 92.1082 43.5916C92.0727 43.6069 92.0357 43.6182 92.0012 43.6252C91.9671 43.6319 91.9469 43.6321 91.9455 43.6321V35.9521ZM86.7101 38.1568C85.3186 39.5485 84.5055 41.3471 84.5055 43.3921H92.1855C92.1855 43.3919 92.1855 43.3924 92.1855 43.3921C92.1855 43.3928 92.1855 43.3948 92.1855 43.3962C92.1852 43.3988 92.185 43.4027 92.1845 43.4077C92.1836 43.4178 92.1816 43.4312 92.1785 43.4478C92.1716 43.4824 92.1603 43.5193 92.1452 43.5548C92.13 43.5899 92.1161 43.612 92.1104 43.6204C92.1049 43.628 92.1118 43.6163 92.1408 43.5875L86.7101 38.1568ZM84.5055 43.3921C84.5055 45.4348 85.3049 47.246 86.7101 48.6515L92.1408 43.2208C92.1144 43.1946 92.1092 43.185 92.1154 43.1939C92.1221 43.2037 92.1361 43.226 92.1502 43.2596C92.1646 43.2935 92.1747 43.3273 92.1805 43.3566C92.186 43.3854 92.1855 43.3988 92.1855 43.3921H84.5055ZM86.7408 48.6817C88.1396 50.0492 89.9288 50.8321 91.9455 50.8321V43.1521C91.9414 43.1521 91.956 43.1519 91.9851 43.1574C92.0144 43.1632 92.0472 43.173 92.0797 43.1864C92.1118 43.1999 92.1324 43.2126 92.1406 43.2181C92.148 43.2232 92.1373 43.2172 92.1101 43.1905L86.7408 48.6817ZM91.9455 50.8321C92.8349 50.8321 93.9063 50.7234 94.9407 50.2736L91.8785 43.2306C91.963 43.1939 92.0304 43.172 92.0744 43.1598C92.1183 43.1473 92.1435 43.1432 92.1464 43.1428C92.1492 43.1423 92.1344 43.1447 92.0996 43.1473C92.0648 43.15 92.0139 43.1521 91.9455 43.1521V50.8321ZM94.8356 50.3176C95.8097 49.9278 96.6058 49.2781 97.1744 48.7501L91.9486 43.1221C91.8836 43.1826 91.831 43.2284 91.7904 43.2618C91.7496 43.2956 91.7257 43.3132 91.718 43.3187C91.7098 43.3244 91.7256 43.3124 91.7645 43.2904C91.8027 43.2688 91.8764 43.2296 91.9834 43.1867L94.8356 50.3176ZM91.7787 48.5821L94.5627 51.5101L100.128 46.2181L97.3443 43.2901L91.7787 48.5821ZM94.6757 46.1041C93.9502 46.8059 93.1203 47.1601 91.9455 47.1601V54.8401C95.0268 54.8401 97.7969 53.7702 100.015 51.6241L94.6757 46.1041ZM91.9455 47.1601C90.8725 47.1601 90.056 46.8239 89.2849 46.0528L83.8544 51.4835C86.0592 53.6884 88.8264 54.8401 91.9455 54.8401V47.1601ZM89.2995 46.0676C88.5399 45.2996 88.2015 44.4786 88.2015 43.3921H80.5215C80.5215 46.4977 81.655 49.2608 83.8395 51.4688L89.2995 46.0676ZM88.2015 43.3921C88.2015 42.3066 88.5385 41.5016 89.2849 40.7555L83.8544 35.3248C81.6567 37.5224 80.5215 40.2856 80.5215 43.3921H88.2015ZM89.2849 40.7555C90.056 39.9844 90.8725 39.6481 91.9455 39.6481V31.9681C88.8264 31.9681 86.0592 33.1199 83.8544 35.3248L89.2849 40.7555ZM91.9455 39.6481C93.1203 39.6481 93.9502 40.0024 94.6757 40.7041L100.015 35.1841C97.7969 33.038 95.0268 31.9681 91.9455 31.9681V39.6481ZM97.9248 31.3921V40.3921H105.605V31.3921H97.9248ZM101.765 44.2321H107.765V36.5521H101.765V44.2321ZM111.605 40.3921V36.4081H103.925V40.3921H111.605ZM107.765 40.2481H111.773V32.5681H107.765V40.2481ZM107.933 36.4081V50.4001H115.613V36.4081H107.933ZM111.773 46.5601H107.765V54.2401H111.773V46.5601ZM111.605 50.4001V44.4001H103.925V50.4001H111.605ZM107.765 40.5601H101.765V48.2401H107.765V40.5601ZM97.9248 44.4001V50.4001H105.605V44.4001H97.9248ZM101.765 46.5601H97.7568V54.2401H101.765V46.5601ZM101.597 50.4001V31.3921H93.9168V50.4001H101.597ZM97.7568 35.2321H101.765V27.5521H97.7568V35.2321ZM127.866 36.7441V34.3921H120.186V36.7441H127.866ZM124.026 38.2321H128.034V30.5521H124.026V38.2321ZM124.194 34.3921V52.3921H131.874V34.3921H124.194ZM128.034 48.5521H124.026V56.2321H128.034V48.5521ZM127.866 52.3921V50.0641H120.186V52.3921H127.866ZM122.136 46.7212C121.622 47.012 121.075 47.1601 120.426 47.1601V54.8401C122.369 54.8401 124.222 54.3644 125.915 53.4071L122.136 46.7212ZM120.426 47.1601C119.353 47.1601 118.536 46.8239 117.765 46.0528L112.334 51.4835C114.54 53.6884 117.307 54.8401 120.426 54.8401V47.1601ZM117.78 46.0676C117.02 45.2996 116.682 44.4786 116.682 43.3921H109.002C109.002 46.4977 110.135 49.2608 112.32 51.4688L117.78 46.0676ZM116.682 43.3921C116.682 42.3066 117.019 41.5016 117.765 40.7555L112.334 35.3248C110.137 37.5224 109.002 40.2856 109.002 43.3921H116.682ZM117.765 40.7555C118.536 39.9844 119.353 39.6481 120.426 39.6481V31.9681C117.307 31.9681 114.54 33.1199 112.334 35.3248L117.765 40.7555ZM120.426 39.6481C121.075 39.6481 121.622 39.7962 122.136 40.0871L125.915 33.4012C124.222 32.444 122.369 31.9681 120.426 31.9681V39.6481ZM120.426 35.9521C118.381 35.9521 116.582 36.7652 115.19 38.1568L120.621 43.5875C120.65 43.5584 120.662 43.5515 120.654 43.5568C120.646 43.5625 120.624 43.5767 120.589 43.5916C120.553 43.6069 120.516 43.6182 120.481 43.6252C120.447 43.6319 120.427 43.6321 120.426 43.6321V35.9521ZM115.19 38.1568C113.799 39.5485 112.986 41.3471 112.986 43.3921H120.666C120.666 43.3919 120.666 43.3924 120.666 43.3921C120.666 43.3928 120.666 43.3948 120.666 43.3962C120.666 43.3988 120.665 43.4027 120.665 43.4077C120.664 43.4178 120.662 43.4312 120.659 43.4478C120.652 43.4824 120.641 43.5193 120.625 43.5548C120.61 43.5899 120.596 43.612 120.591 43.6204C120.585 43.628 120.592 43.6163 120.621 43.5875L115.19 38.1568ZM112.986 43.3921C112.986 45.4348 113.785 47.246 115.19 48.6515L120.621 43.2208C120.595 43.1946 120.589 43.185 120.596 43.1939C120.602 43.2037 120.616 43.226 120.631 43.2596C120.645 43.2935 120.655 43.3273 120.661 43.3566C120.666 43.3854 120.666 43.3988 120.666 43.3921H112.986ZM115.221 48.6817C116.62 50.0492 118.409 50.8321 120.426 50.8321V43.1521C120.422 43.1521 120.436 43.1519 120.465 43.1574C120.495 43.1632 120.528 43.173 120.56 43.1864C120.592 43.1999 120.613 43.2126 120.621 43.2181C120.628 43.2232 120.618 43.2172 120.59 43.1905L115.221 48.6817ZM120.426 50.8321C122.443 50.8321 124.253 50.0593 125.661 48.6515L120.231 43.2208C120.212 43.2395 120.209 43.239 120.224 43.2284C120.241 43.2176 120.267 43.2018 120.304 43.1864C120.34 43.1713 120.374 43.1615 120.402 43.1562C120.428 43.1512 120.438 43.1521 120.426 43.1521V50.8321ZM125.661 48.6515C127.067 47.246 127.866 45.4348 127.866 43.3921H120.186C120.186 43.3988 120.185 43.3854 120.191 43.3566C120.197 43.3273 120.207 43.2935 120.221 43.2596C120.235 43.226 120.249 43.2037 120.256 43.1939C120.262 43.185 120.257 43.1946 120.231 43.2208L125.661 48.6515ZM127.866 43.3921C127.866 41.3471 127.053 39.5485 125.661 38.1568L120.231 43.5875C120.259 43.6163 120.266 43.628 120.261 43.6204C120.255 43.6122 120.241 43.5899 120.226 43.5548C120.211 43.5193 120.2 43.4824 120.193 43.4478C120.186 43.4137 120.186 43.3933 120.186 43.3921H127.866ZM125.691 38.1875C124.291 36.7549 122.472 35.9521 120.426 35.9521V43.6321C120.433 43.6321 120.417 43.6326 120.386 43.6264C120.353 43.6199 120.315 43.6086 120.275 43.5916C120.236 43.5748 120.207 43.5575 120.191 43.5462C120.176 43.5354 120.18 43.5356 120.2 43.5568L125.691 38.1875ZM86.0288 14.8081V24.0721H93.7088V14.8081H86.0288ZM86.0288 24.0721V33.3361H93.7088V24.0721H86.0288Z" fill="#0F2B92"/>
</g>
</g>
<defs>
<clipPath id="clip0_9_1171">
<rect width="132" height="60" fill="white"/>
</clipPath>
</defs>
</svg>
